<svg width="31" height="30" viewBox="0 0 31 30" fill="none" xmlns="http://www.w3.org/2000/svg">
<ellipse cx="15.5" cy="15" rx="15.5" ry="15" fill="#FFEEDF"/>
<path d="M14.4797 6C15.645 6 16.8102 6 17.9754 6C19.3071 6.08317 20.5555 6.49905 21.4711 7.49714C22.6363 8.74476 23.0524 11.3232 21.9704 13.0698C21.8872 13.2362 21.804 13.4025 21.6375 13.4025C21.3878 13.4857 21.1381 13.5689 20.8885 13.5689C20.722 13.4857 20.5555 13.2362 20.5555 13.0698C20.4723 12.654 19.9729 12.1549 19.4735 12.1549C18.9742 12.1549 18.6412 12.654 18.8077 13.153C19.0574 13.8184 19.5568 14.0679 20.1394 14.2343C20.8052 14.4838 20.8885 14.8165 20.4723 15.3987C19.5568 16.48 18.3916 17.3117 17.0599 17.8108C16.3108 18.0603 16.3108 18.3098 16.8102 18.8089C18.2251 20.5556 20.1394 21.2209 22.3034 20.8882C23.968 20.7219 25.2164 19.7238 26.4649 18.7257C26.7146 18.4762 26.9642 18.2267 27.2972 18.0603C27.4636 17.9771 27.7133 17.9771 27.963 17.9771C27.963 18.2267 28.0462 18.4762 27.963 18.6425C26.5481 20.6387 24.9667 22.4686 22.2201 22.5517C21.7208 22.5517 21.4711 22.7181 21.1381 23.134C18.0586 26.5441 12.4822 26.4609 9.40271 23.0508C9.06979 22.8013 8.8201 22.6349 8.40395 22.5517C6.82258 22.3854 5.65736 21.72 4.57537 20.5556C4.15922 20.0565 3.74307 19.5575 3.32692 19.0584C3.07723 18.7257 2.82754 18.393 3.16046 18.1435C3.49338 17.8108 3.8263 18.2267 4.07599 18.393C4.90829 18.9752 5.65736 19.6406 6.48966 20.1397C8.65364 21.3873 10.8176 21.3041 12.8984 20.0565C13.481 19.7238 13.8971 19.1416 14.3133 18.6425C14.6462 18.2267 14.563 18.0603 14.0636 17.8108C12.7319 17.3117 11.5667 16.5632 10.5679 15.4819C9.98532 14.8165 10.0686 14.4838 10.8176 14.1511C11.317 13.9016 11.8164 13.7352 12.0661 13.153C12.2325 12.7371 12.0661 12.2381 11.5667 12.1549C11.2338 11.9886 10.4847 12.4876 10.4847 12.9867C10.4847 13.3194 10.4015 13.5689 10.0686 13.5689C9.81886 13.5689 9.40271 13.4857 9.31948 13.3194C8.98656 12.9035 8.73687 12.4044 8.65364 11.9054C8.32072 10.2419 8.48718 8.74476 9.73563 7.49714C10.6512 6.58222 11.8164 6.16635 13.0648 6.08317C13.5642 6 13.9804 6 14.4797 6ZM15.5617 19.4743C14.2301 21.3041 12.6487 22.5517 10.3182 22.7181C13.3978 25.9619 18.2251 25.2133 20.3058 22.6349C18.2251 22.3022 16.8102 21.0546 15.5617 19.4743ZM14.1468 6.74857C12.1493 6.83175 10.9009 7.49714 9.98532 8.74476C9.73563 8.99428 9.56917 9.41016 9.90209 9.82603C10.235 10.1587 10.5679 9.9092 10.9009 9.74286C10.9841 9.65968 11.0673 9.65968 11.1505 9.57651C12.0661 8.74476 13.2313 8.49524 14.4797 8.41206C14.8959 8.41206 15.312 8.41206 15.7282 8.32889C15.8947 8.32889 16.2276 8.07936 16.2276 7.99619C16.2276 7.82984 16.0611 7.49714 15.8947 7.41397C15.2288 7.08127 14.4797 6.91492 14.1468 6.74857Z" fill="#3D2C25"/>
<path d="M14.1467 6.74857C14.4797 6.91491 15.2287 7.08126 15.8946 7.41396C16.061 7.49714 16.2275 7.74666 16.2275 7.99618C16.2275 8.16253 15.9778 8.32888 15.7281 8.32888C15.312 8.41206 14.8958 8.41206 14.4797 8.41206C13.2312 8.41206 12.066 8.66158 11.1505 9.5765C11.0672 9.5765 10.984 9.65968 10.9008 9.74285C10.5679 9.9092 10.2349 10.1587 9.90201 9.82602C9.56909 9.41015 9.73555 8.99428 9.98524 8.74476C10.9008 7.49714 12.1492 6.83174 14.1467 6.74857Z" fill="#753E05"/>
</svg>
