<svg width="79" height="77" viewBox="0 0 79 77" fill="none" xmlns="http://www.w3.org/2000/svg">
<g clip-path="url(#clip0_325_685)">
<g opacity="0.85">
<path d="M18.5229 37.0768C16.9406 33.2024 13.106 31.1036 9.95804 32.3892C6.81004 33.6747 5.54072 37.8577 7.12294 41.7322C8.70515 45.6067 12.5398 47.7054 15.6878 46.4198C18.8358 45.1343 20.1051 40.9513 18.5229 37.0768Z" fill="#753E05"/>
<path d="M33.7109 22.1835C32.457 17.51 28.3686 14.5456 24.5793 15.5623C20.79 16.579 18.7346 21.1918 19.9886 25.8653C21.2425 30.5388 25.3309 33.5032 29.1202 32.4865C32.9095 31.4698 34.9649 26.857 33.7109 22.1835Z" fill="#753E05"/>
<path d="M69.1616 38.8302C70.8995 35.0229 69.8007 30.7919 66.7073 29.3798C63.6139 27.9678 59.6974 29.9095 57.9595 33.7167C56.2216 37.5239 57.3204 41.755 60.4138 43.167C63.5072 44.5791 67.4237 42.6374 69.1616 38.8302Z" fill="#753E05"/>
<path d="M55.0968 23.6715C55.9774 18.9137 53.5639 14.4781 49.7063 13.7641C45.8486 13.0502 42.0076 16.3283 41.127 21.0861C40.2465 25.8439 42.66 30.2796 46.5176 30.9935C50.3753 31.7075 54.2163 28.4293 55.0968 23.6715Z" fill="#753E05"/>
<path d="M57.3211 51.7906C57.4387 52.6846 57.3941 53.5372 57.2477 54.4503C57.2031 55.3029 57.0567 56.2159 56.8498 57.0272C56.3534 58.9742 55.1284 60.3898 53.3786 61.1532C51.7306 61.8562 49.7199 61.9483 47.9575 61.0669C45.2025 59.6732 41.9161 59.0081 38.5852 59.1955C35.3561 59.3225 32.1841 60.2417 29.8011 61.7941C28.1308 62.9233 26.1202 63.0154 24.3768 62.3981C22.6334 61.7808 21.1987 60.2918 20.6389 58.4211C20.3781 57.7498 20.2191 57.018 20.0601 56.2863C19.9011 55.5546 19.8439 54.7624 19.8471 54.072C20.4011 48.511 22.8064 46.5323 26.5417 42.3872C30.3183 38.0799 31.7343 34.8986 37.4227 34.2755C43.1111 33.6523 44.9624 37.2347 49.1075 40.97C53.4148 44.7467 56.1284 46.3026 57.3211 51.7906Z" fill="#753E05"/>
</g>
</g>
<defs>
<clipPath id="clip0_325_685">
<rect width="58.607" height="54.2262" fill="white" transform="translate(0 29.9173) rotate(-30.6954)"/>
</clipPath>
</defs>
</svg>
