<svg width="62" height="62" viewBox="0 0 62 62" fill="none" xmlns="http://www.w3.org/2000/svg">
<g clip-path="url(#clip0_318_543)">
<path d="M61 31C61 37.7 58.8 44 55 49C51.7 53.4 47.2 56.9 41.9 59L30.5 40.5L21.5 25.9C19.4 22.6 14.6 22.4 12.3 25.7L2.4 40C1.5 37.1 1 34.1 1 31C1 14.4 14.4 1 31 1C47.6 1 61 14.4 61 31Z" fill="#FFEEDF" stroke="#723F06" stroke-width="2" stroke-miterlimit="10"/>
<path d="M38.2999 20.2C41.2822 20.2 43.6999 17.7823 43.6999 14.8C43.6999 11.8177 41.2822 9.4 38.2999 9.4C35.3176 9.4 32.8999 11.8177 32.8999 14.8C32.8999 17.7823 35.3176 20.2 38.2999 20.2Z" fill="#FFEEDF" stroke="#723F06" stroke-width="2" stroke-miterlimit="10"/>
<path d="M41.8999 58.9C38.4999 60.3 34.8999 61 30.9999 61C26.3999 61 22.0999 60 18.1999 58.1C10.6999 54.6 4.8999 48 2.3999 40L12.3999 25.7C14.5999 22.5 19.4999 22.6 21.5999 25.9L30.5999 40.5L41.8999 58.9Z" fill="#FFEEDF" stroke="#723F06" stroke-width="2" stroke-miterlimit="10"/>
<path d="M55 49C51.7 53.4 47.2 56.9 41.9 59L30.5 40.5L36 32.7C38.2 29.5 43.1 29.6 45.1 32.9L55 49Z" fill="#FFEEDF" stroke="#723F06" stroke-width="2" stroke-miterlimit="10"/>
</g>
<defs>
<clipPath id="clip0_318_543">
<rect width="62" height="62" fill="white"/>
</clipPath>
</defs>
</svg>
