<svg width="64" height="64" viewBox="0 0 64 64" fill="none" xmlns="http://www.w3.org/2000/svg">
<path d="M32 63C33.7 63 35.4 62.9 37.1 62.6C39.5 57.8 39.5 54 38.1 47.9C37.8 46.7 38.2 42 37 41.5L32.7 39.4C45.4 44 53.3 42.4 54.4 32.1C55.1 27.6 54.2 24.7 50.7 24.7L45.9 24.4C44.4 24.3 43.2 23.4 42.4 22.1C39.1 16.2 33.9 14.8 28 14.7V32.4C28 40.7 12.2 38.4 12.2 32.4C12.2 16.4 13.9 14.2 28 14.2V14.7C33.8 14.8 39.1 16.2 42.4 22.1C43.1 23.4 44.4 24.3 45.9 24.4L50.7 24.7C54.2 24.7 55.1 27.6 54.4 32.1C53.3 42.4 45.4 44 32.7 39.4L37 41.5C38.1 42.1 37.8 46.7 38.1 47.9C39.5 54 39.5 57.8 37.1 62.6C51.8 60.2 63 47.4 63 32C63 14.9 49.1 1 32 1C14.9 1 1 14.9 1 32C1 38.8 3.2 45 6.9 50.1C11.3 46.7 15.3 42.6 17.8 37.6C15.3 42.6 11.3 46.8 6.9 50.1C12.5 57.9 21.7 63 32 63Z" fill="#FFEEDF"/>
<path d="M37.1 62.6C35.4 62.9 33.7 63 32 63C21.7 63 12.5 57.9 6.9 50.1M37.1 62.6C39.5 57.8 39.5 54 38.1 47.9M37.1 62.6C51.8 60.2 63 47.4 63 32C63 14.9 49.1 1 32 1C14.9 1 1 14.9 1 32C1 38.8 3.2 45 6.9 50.1M38.1 47.9C37.8 46.7 38.2 42 37 41.5M38.1 47.9C37.8 46.7 38.1 42.1 37 41.5M37 41.5L32.7 39.4C45.4 44 53.3 42.4 54.4 32.1C55.1 27.6 54.2 24.7 50.7 24.7L45.9 24.4M45.9 24.4C44.4 24.3 43.2 23.4 42.4 22.1M45.9 24.4C44.4 24.3 43.1 23.4 42.4 22.1M42.4 22.1C39.1 16.2 33.9 14.8 28 14.7M42.4 22.1C39.1 16.2 33.8 14.8 28 14.7M28 14.7V32.4C28 40.7 12.2 38.4 12.2 32.4C12.2 16.4 13.9 14.2 28 14.2V14.7ZM6.9 50.1C11.3 46.7 15.3 42.6 17.8 37.6C15.3 42.6 11.3 46.8 6.9 50.1ZM54.2 30.9C50.4 30.5 48.2 28.4 47.5 24.7" stroke="#723F06" stroke-width="2" stroke-miterlimit="10" stroke-linecap="round"/>
<path d="M12.2 32.7C12.2 38.7 28 41 28 32.7V14.9V14.4C13.9 14.4 12.2 16.7 12.2 32.7Z" fill="#723F06"/>
<path d="M35.5 29C36.9 29 38 27.9 38 26.5C38 25.1 36.9 24 35.5 24C34.1 24 33 25.1 33 26.5C33 27.9 34.1 29 35.5 29Z" fill="#723F06"/>
</svg>
