<svg width="38" height="30" viewBox="0 0 38 30" fill="none" xmlns="http://www.w3.org/2000/svg">
<path d="M17.4799 0C19.2532 0 21.0266 0 22.7999 0C24.8266 0.126582 26.7266 0.759494 28.1199 2.27848C29.8932 4.17722 30.5266 8.10127 28.8799 10.7595C28.7532 11.0127 28.6266 11.2658 28.3732 11.2658C27.9932 11.3924 27.6132 11.519 27.2332 11.519C26.9799 11.3924 26.7266 11.0127 26.7266 10.7595C26.5999 10.1266 25.8399 9.36709 25.0799 9.36709C24.3199 9.36709 23.8132 10.1266 24.0666 10.8861C24.4466 11.8987 25.2066 12.2785 26.0932 12.5316C27.1066 12.9114 27.2332 13.4177 26.5999 14.3038C25.2066 15.9494 23.4332 17.2152 21.4066 17.9747C20.2666 18.3544 20.2666 18.7342 21.0266 19.4937C23.1799 22.1519 26.0932 23.1646 29.3866 22.6582C31.9199 22.4051 33.8199 20.8861 35.7199 19.3671C36.0999 18.9873 36.4799 18.6076 36.9866 18.3544C37.2399 18.2278 37.6199 18.2278 37.9999 18.2278C37.9999 18.6076 38.1266 18.9873 37.9999 19.2405C35.8466 22.2785 33.4399 25.0633 29.2599 25.1899C28.4999 25.1899 28.1199 25.443 27.6132 26.0759C22.9266 31.2658 14.4399 31.1392 9.75324 25.9494C9.24657 25.5696 8.86657 25.3165 8.23324 25.1899C5.82657 24.9367 4.05324 23.924 2.40657 22.1519C1.77324 21.3924 1.1399 20.6329 0.50657 19.8734C0.12657 19.3671 -0.25343 18.8608 0.253237 18.481C0.759903 17.9747 1.26657 18.6076 1.64657 18.8608C2.91324 19.7468 4.05324 20.7595 5.3199 21.519C8.61324 23.4177 11.9066 23.2911 15.0732 21.3924C15.9599 20.8861 16.5932 20 17.2266 19.2405C17.7332 18.6076 17.6066 18.3544 16.8466 17.9747C14.8199 17.2152 13.0466 16.0759 11.5266 14.4304C10.6399 13.4177 10.7666 12.9114 11.9066 12.4051C12.6666 12.0253 13.4266 11.7722 13.8066 10.8861C14.0599 10.2532 13.8066 9.49367 13.0466 9.36709C12.5399 9.11392 11.3999 9.87342 11.3999 10.6329C11.3999 11.1392 11.2732 11.519 10.7666 11.519C10.3866 11.519 9.75324 11.3924 9.62657 11.1392C9.1199 10.5063 8.7399 9.74683 8.61324 8.98734C8.10657 6.4557 8.3599 4.17722 10.2599 2.27848C11.6532 0.886076 13.4266 0.253165 15.3266 0.126582C16.0866 0 16.7199 0 17.4799 0ZM19.1266 20.5063C17.0999 23.2911 14.6932 25.1899 11.1466 25.443C15.8332 30.3797 23.1799 29.2405 26.3466 25.3165C23.1799 24.8101 21.0266 22.9114 19.1266 20.5063ZM16.9732 1.13924C13.9332 1.26582 12.0332 2.27848 10.6399 4.17722C10.2599 4.55696 10.0066 5.18987 10.5132 5.82278C11.0199 6.32911 11.5266 5.94937 12.0332 5.6962C12.1599 5.56962 12.2866 5.56962 12.4132 5.44304C13.8066 4.17722 15.5799 3.79747 17.4799 3.67089C18.1132 3.67089 18.7466 3.67089 19.3799 3.5443C19.6332 3.5443 20.1399 3.16456 20.1399 3.03797C20.1399 2.78481 19.8866 2.27848 19.6332 2.1519C18.6199 1.64557 17.4799 1.39241 16.9732 1.13924Z" fill="#FFEEDF"/>
<path d="M16.9732 1.13922C17.4799 1.39239 18.6199 1.64555 19.6332 2.15188C19.8866 2.27846 20.1399 2.65821 20.1399 3.03796C20.1399 3.29112 19.7599 3.54428 19.3799 3.54428C18.7466 3.67087 18.1132 3.67087 17.4799 3.67087C15.5799 3.67087 13.8066 4.05061 12.4132 5.44302C12.2866 5.44302 12.1599 5.5696 12.0332 5.69618C11.5266 5.94935 11.0199 6.32909 10.5132 5.82277C10.0066 5.18985 10.2599 4.55694 10.6399 4.1772C12.0332 2.27846 13.9332 1.2658 16.9732 1.13922Z" fill="#753E05"/>
</svg>
