<svg width="55" height="55" viewBox="0 0 55 55" fill="none" xmlns="http://www.w3.org/2000/svg">
<path d="M52.7083 45.8333L52.7083 32.0833L38.9583 32.0833" stroke="#3D2C25" stroke-width="4" stroke-linecap="round" stroke-linejoin="round"/>
<path d="M2.29175 9.16666L2.29175 22.9167L16.0417 22.9167" stroke="#3D2C25" stroke-width="4" stroke-linecap="round" stroke-linejoin="round"/>
<path d="M8.04367 34.375C9.20593 37.6594 11.1813 40.5959 13.7854 42.9105C16.3895 45.225 19.5374 46.8422 22.9356 47.6111C26.3337 48.3799 29.8712 48.2755 33.2181 47.3074C36.5649 46.3393 39.612 44.5392 42.0749 42.075L52.7083 32.0833M2.29159 22.9167L12.9249 12.925C15.3879 10.4608 18.4349 8.66068 21.7818 7.69261C25.1286 6.72453 28.6661 6.62006 32.0643 7.38893C35.4624 8.1578 38.6104 9.77496 41.2145 12.0895C43.8186 14.4041 45.7939 17.3406 46.9562 20.625" stroke="#3D2C25" stroke-width="4" stroke-linecap="round" stroke-linejoin="round"/>
</svg>
